<mxfile host="app.diagrams.net" modified="2024-02-22T02:06:15.521Z" agent="Mozilla/5.0 (Windows NT 10.0; Win64; x64) AppleWebKit/537.36 (KHTML, like Gecko) Chrome/121.0.0.0 Safari/537.36" etag="aokNCe16P7aUL3pBQRE8" version="23.1.5" type="github">
  <diagram name="第 1 页" id="dDQUipNFQiX6oBX-kvsF">
    <mxGraphModel dx="1247" dy="659" grid="1" gridSize="10" guides="1" tooltips="1" connect="1" arrows="1" fold="1" page="1" pageScale="1" pageWidth="827" pageHeight="1169" math="0" shadow="0">
      <root>
        <mxCell id="0" />
        <mxCell id="1" parent="0" />
        <mxCell id="gEaBiGcU0Ve1vbxQW--x-1" value="&lt;span style=&quot;font-size: 14px;&quot;&gt;&lt;span style=&quot;font-size: 14px;&quot;&gt;div&lt;br style=&quot;font-size: 14px;&quot;&gt;&lt;br style=&quot;font-size: 14px;&quot;&gt;p&lt;br style=&quot;font-size: 14px;&quot;&gt;&lt;br style=&quot;font-size: 14px;&quot;&gt;元素&lt;br style=&quot;font-size: 14px;&quot;&gt;&lt;/span&gt;&lt;/span&gt;" style="text;html=1;align=center;verticalAlign=middle;whiteSpace=wrap;rounded=0;fontSize=14;fontStyle=1;sketch=1;curveFitting=1;jiggle=2;shadow=0;" vertex="1" parent="1">
          <mxGeometry x="190" y="350" width="50" height="110" as="geometry" />
        </mxCell>
        <mxCell id="gEaBiGcU0Ve1vbxQW--x-9" style="edgeStyle=orthogonalEdgeStyle;rounded=0;orthogonalLoop=1;jettySize=auto;html=1;exitX=0.5;exitY=1;exitDx=0;exitDy=0;entryX=0.532;entryY=0.112;entryDx=0;entryDy=0;sketch=1;curveFitting=1;jiggle=2;shadow=0;entryPerimeter=0;" edge="1" parent="1" source="gEaBiGcU0Ve1vbxQW--x-20" target="gEaBiGcU0Ve1vbxQW--x-19">
          <mxGeometry relative="1" as="geometry" />
        </mxCell>
        <mxCell id="gEaBiGcU0Ve1vbxQW--x-2" value="基础组件" style="text;html=1;align=center;verticalAlign=middle;whiteSpace=wrap;rounded=0;fontSize=14;fontStyle=1;sketch=1;curveFitting=1;jiggle=2;shadow=0;" vertex="1" parent="1">
          <mxGeometry x="290" y="280" width="70" height="30" as="geometry" />
        </mxCell>
        <mxCell id="gEaBiGcU0Ve1vbxQW--x-3" value="&amp;nbsp;业务组件" style="text;html=1;align=center;verticalAlign=middle;whiteSpace=wrap;rounded=0;fontSize=14;fontStyle=1;sketch=1;curveFitting=1;jiggle=2;shadow=0;" vertex="1" parent="1">
          <mxGeometry x="290" y="530" width="70" height="40" as="geometry" />
        </mxCell>
        <mxCell id="gEaBiGcU0Ve1vbxQW--x-4" value="区块" style="text;html=1;align=center;verticalAlign=middle;whiteSpace=wrap;rounded=0;fontSize=14;fontStyle=1;sketch=1;curveFitting=1;jiggle=2;shadow=0;" vertex="1" parent="1">
          <mxGeometry x="427.5" y="420" width="60" height="30" as="geometry" />
        </mxCell>
        <mxCell id="gEaBiGcU0Ve1vbxQW--x-5" value="模板" style="text;html=1;align=center;verticalAlign=middle;whiteSpace=wrap;rounded=0;fontSize=14;fontStyle=1;sketch=1;curveFitting=1;jiggle=2;shadow=0;" vertex="1" parent="1">
          <mxGeometry x="580" y="420" width="60" height="30" as="geometry" />
        </mxCell>
        <mxCell id="gEaBiGcU0Ve1vbxQW--x-11" value="" style="endArrow=classic;html=1;rounded=0;entryX=0;entryY=0.5;entryDx=0;entryDy=0;sketch=1;curveFitting=1;jiggle=2;shadow=0;entryPerimeter=0;exitX=1;exitY=1;exitDx=0;exitDy=0;" edge="1" parent="1" source="gEaBiGcU0Ve1vbxQW--x-20" target="gEaBiGcU0Ve1vbxQW--x-18">
          <mxGeometry width="50" height="50" relative="1" as="geometry">
            <mxPoint x="350" y="310" as="sourcePoint" />
            <mxPoint x="360" y="520" as="targetPoint" />
          </mxGeometry>
        </mxCell>
        <mxCell id="gEaBiGcU0Ve1vbxQW--x-12" value="" style="endArrow=classic;html=1;rounded=0;entryX=0;entryY=0.5;entryDx=0;entryDy=0;exitX=0.939;exitY=0.232;exitDx=0;exitDy=0;sketch=1;curveFitting=1;jiggle=2;shadow=0;entryPerimeter=0;exitPerimeter=0;" edge="1" parent="1" source="gEaBiGcU0Ve1vbxQW--x-19" target="gEaBiGcU0Ve1vbxQW--x-18">
          <mxGeometry width="50" height="50" relative="1" as="geometry">
            <mxPoint x="360" y="480" as="sourcePoint" />
            <mxPoint x="430" y="570" as="targetPoint" />
          </mxGeometry>
        </mxCell>
        <mxCell id="gEaBiGcU0Ve1vbxQW--x-13" value="" style="endArrow=classic;html=1;rounded=0;sketch=1;curveFitting=1;jiggle=2;shadow=0;" edge="1" parent="1" source="gEaBiGcU0Ve1vbxQW--x-18" target="gEaBiGcU0Ve1vbxQW--x-15">
          <mxGeometry width="50" height="50" relative="1" as="geometry">
            <mxPoint x="360" y="460" as="sourcePoint" />
            <mxPoint x="410" y="410" as="targetPoint" />
          </mxGeometry>
        </mxCell>
        <mxCell id="gEaBiGcU0Ve1vbxQW--x-14" value="" style="endArrow=classic;html=1;rounded=0;exitX=1;exitY=0.5;exitDx=0;exitDy=0;sketch=1;curveFitting=1;jiggle=2;shadow=0;" edge="1" parent="1" source="gEaBiGcU0Ve1vbxQW--x-1">
          <mxGeometry width="50" height="50" relative="1" as="geometry">
            <mxPoint x="340" y="560" as="sourcePoint" />
            <mxPoint x="320" y="405" as="targetPoint" />
          </mxGeometry>
        </mxCell>
        <mxCell id="gEaBiGcU0Ve1vbxQW--x-15" value="" style="sketch=1;outlineConnect=0;fillColor=#d5e8d4;strokeColor=#82b366;dashed=0;verticalLabelPosition=bottom;verticalAlign=top;align=center;html=1;fontSize=12;fontStyle=0;aspect=fixed;pointerEvents=1;shape=mxgraph.aws4.template;curveFitting=1;jiggle=2;shadow=0;" vertex="1" parent="1">
          <mxGeometry x="596.25" y="390" width="25" height="30" as="geometry" />
        </mxCell>
        <mxCell id="gEaBiGcU0Ve1vbxQW--x-18" value="" style="verticalLabelPosition=bottom;verticalAlign=top;html=1;shape=mxgraph.basic.6_point_star;fillColor=#f8cecc;strokeColor=#b85450;sketch=1;curveFitting=1;jiggle=2;shadow=0;" vertex="1" parent="1">
          <mxGeometry x="435" y="390" width="45" height="30" as="geometry" />
        </mxCell>
        <mxCell id="gEaBiGcU0Ve1vbxQW--x-19" value="" style="verticalLabelPosition=bottom;verticalAlign=top;html=1;shape=mxgraph.basic.donut;dx=6.04;fillColor=#dae8fc;strokeColor=#6c8ebf;sketch=1;curveFitting=1;jiggle=2;shadow=0;" vertex="1" parent="1">
          <mxGeometry x="305" y="490" width="40" height="40" as="geometry" />
        </mxCell>
        <mxCell id="gEaBiGcU0Ve1vbxQW--x-20" value="" style="ellipse;whiteSpace=wrap;html=1;aspect=fixed;fillColor=#dae8fc;strokeColor=#6c8ebf;sketch=1;curveFitting=1;jiggle=2;shadow=0;" vertex="1" parent="1">
          <mxGeometry x="307.5" y="310" width="35" height="35" as="geometry" />
        </mxCell>
      </root>
    </mxGraphModel>
  </diagram>
</mxfile>
